<?xml version="1.0" encoding="UTF-8"?><svg id="_레이어_1" xmlns="http://www.w3.org/2000/svg" viewBox="0 0 136.65 155.71"><path d="m.16,76.34c0-9.37,1.61-18.56,4.82-27.57,3.21-9.01,7.89-17.19,14.05-24.55,6.15-7.35,13.65-13.23,22.48-17.63C50.34,2.2,60.38,0,71.62,0,84.99,0,96.6,3.1,106.44,9.3c9.83,6.2,17.16,14.27,21.98,24.22l-25.29,19.03c-2.14-5.48-4.99-9.73-8.53-12.76-3.55-3.03-7.43-5.15-11.64-6.38-4.21-1.22-8.26-1.84-12.14-1.84-6.29,0-11.78,1.33-16.46,4-4.68,2.67-8.56,6.24-11.64,10.71-3.08,4.47-5.35,9.44-6.82,14.92-1.47,5.48-2.21,10.96-2.21,16.44,0,6.06.87,11.89,2.61,17.52,1.74,5.62,4.25,10.6,7.53,14.92,3.28,4.32,7.26,7.75,11.94,10.27,4.68,2.52,9.83,3.79,15.45,3.79,4.01,0,8.09-.72,12.24-2.16,4.15-1.44,7.99-3.71,11.54-6.81,3.54-3.1,6.25-7.17,8.13-12.22l26.89,17.08c-2.81,7.5-7.43,13.92-13.85,19.25-6.42,5.34-13.68,9.41-21.78,12.22-8.1,2.81-16.09,4.22-23.98,4.22-10.3,0-19.77-2.27-28.4-6.81-8.63-4.54-16.06-10.6-22.28-18.17-6.22-7.57-11.04-16.07-14.45-25.52C1.87,95.77.16,86.15.16,76.34Z"/></svg>