<?xml version="1.0" encoding="UTF-8"?><svg id="_레이어_1" xmlns="http://www.w3.org/2000/svg" viewBox="0 0 157.2 155.8"><path d="m78.41,155.8c-10.49,0-19.96-2.2-28.41-6.6-8.45-4.4-15.73-10.31-21.82-17.74-6.1-7.43-10.78-15.79-14.06-25.09-3.28-9.3-4.92-18.93-4.92-28.88s1.74-19.97,5.21-29.2c3.47-9.23,8.32-17.49,14.55-24.77,6.22-7.28,13.6-13.01,22.12-17.2C59.59,2.14,68.9.04,78.99.04s19.76,2.2,28.21,6.6c8.45,4.4,15.73,10.35,21.82,17.85,6.1,7.5,10.78,15.9,14.06,25.2,3.27,9.3,4.92,18.79,4.92,28.45,0,10.24-1.71,19.98-5.11,29.2-3.41,9.23-8.26,17.49-14.55,24.77-6.29,7.28-13.66,13.05-22.12,17.31-8.45,4.26-17.73,6.38-27.82,6.38Zm-36.37-77.88c0,5.92.79,11.65,2.36,17.2,1.57,5.55,3.9,10.49,6.98,14.82,3.08,4.33,6.91,7.79,11.5,10.38,4.59,2.6,9.83,3.89,15.73,3.89s11.53-1.33,16.12-4c4.59-2.67,8.39-6.24,11.4-10.71,3.01-4.47,5.28-9.48,6.78-15.03,1.51-5.55,2.26-11.21,2.26-16.98s-.79-11.61-2.36-17.09c-1.57-5.48-3.93-10.42-7.08-14.82-3.15-4.4-7.01-7.82-11.6-10.28-4.59-2.45-9.77-3.68-15.53-3.68-6.16,0-11.5,1.3-16.02,3.89-4.52,2.6-8.33,6.09-11.4,10.49-3.08,4.4-5.38,9.38-6.88,14.93-1.51,5.55-2.26,11.22-2.26,16.98Z"/></svg>